<?xml version="1.0" encoding="utf-8"?>
<!-- Generator: Adobe Illustrator 16.0.0, SVG Export Plug-In . SVG Version: 6.00 Build 0)  -->
<!DOCTYPE svg PUBLIC "-//W3C//DTD SVG 1.1//EN" "http://www.w3.org/Graphics/SVG/1.1/DTD/svg11.dtd">
<svg version="1.1" xmlns="http://www.w3.org/2000/svg" xmlns:xlink="http://www.w3.org/1999/xlink" x="0px" y="0px" width="30px"
	 height="30px" viewBox="0 0 30 30" enable-background="new 0 0 30 30" xml:space="preserve">
<g id="Capa_1">
	<circle display="none" fill="#00293C" stroke="#00293C" stroke-width="2" stroke-miterlimit="10" cx="15" cy="15" r="13.834"/>
	<circle fill="#FFFFFF" stroke="#A0A0A0" stroke-width="2" stroke-miterlimit="10" cx="15" cy="15" r="13.834"/>
	<g id="link.psd_2_" display="none">
		<g display="inline">
			<defs>
				<rect id="SVGID_1_" x="5.25" y="5.25" width="19.5" height="19.5"/>
			</defs>
			<clipPath id="SVGID_2_">
				<use xlink:href="#SVGID_1_"  overflow="visible"/>
			</clipPath>
			<g id="Shape_1_2_" clip-path="url(#SVGID_2_)">
				<g>
					<path fill="#F2F2F2" d="M24.75,9.199c-0.066-0.65-0.336-1.284-0.833-1.781l-1.313-1.312c-0.561-0.561-1.293-0.843-2.028-0.856
						h-0.11c-0.736,0.014-1.469,0.296-2.029,0.856l-2.993,2.989c-1.15,1.149-1.15,3.018,0,4.167l0.077,0.076l-2.146,2.143
						l-0.08-0.079c-1.15-1.149-3.02-1.149-4.17,0l-2.992,2.989c-1.15,1.149-1.15,3.019,0,4.168l1.313,1.312
						c1.15,1.147,3.02,1.147,4.169,0l2.992-2.989c1.15-1.148,1.15-3.018,0-4.167l-0.076-0.075l2.145-2.143l0.079,0.08
						c1.15,1.148,3.021,1.148,4.17,0l2.992-2.99c0.497-0.496,0.766-1.128,0.833-1.778L24.75,9.199L24.75,9.199z M13.453,19.73
						l-2.993,2.99c-0.513,0.514-1.349,0.514-1.866,0l-1.313-1.313c-0.514-0.514-0.514-1.348,0-1.864l2.992-2.989
						c0.513-0.514,1.349-0.514,1.866,0l0.08,0.079l-1.297,1.296c-0.331,0.33-0.331,0.827,0,1.161c0.167,0.167,0.374,0.25,0.581,0.25
						s0.414-0.083,0.581-0.25l1.297-1.296l0.072,0.071C13.966,18.379,13.966,19.214,13.453,19.73z M22.764,10.436l-2.992,2.99
						c-0.514,0.513-1.35,0.513-1.865,0l-0.08-0.08l1.297-1.296c0.331-0.33,0.331-0.827,0-1.161c-0.33-0.334-0.827-0.33-1.161,0
						l-1.298,1.296l-0.075-0.076c-0.514-0.513-0.514-1.348,0-1.864l2.992-2.99c0.515-0.513,1.349-0.513,1.866,0l1.313,1.312
						C23.279,9.084,23.279,9.919,22.764,10.436z"/>
				</g>
			</g>
		</g>
	</g>
	<g id="facebook-logo.psd_1_" display="none">
		<g display="inline">
			<defs>
				<rect id="SVGID_3_" x="9.188" y="4.271" width="11.625" height="21.459"/>
			</defs>
			<clipPath id="SVGID_4_">
				<use xlink:href="#SVGID_3_"  overflow="visible"/>
			</clipPath>
			<g id="Forma_1_4_" clip-path="url(#SVGID_4_)">
				<g>
					<path fill="#F2F2F2" d="M20.375,4.275l-2.788-0.004c-3.132,0-5.156,2.073-5.156,5.281v2.435H9.627
						c-0.242,0-0.438,0.196-0.438,0.438v3.528c0,0.24,0.197,0.438,0.438,0.438h2.803v8.902c0,0.242,0.196,0.438,0.438,0.438h3.657
						c0.242,0,0.438-0.194,0.438-0.438v-8.902h3.277c0.241,0,0.438-0.195,0.438-0.438v-3.528c0-0.116-0.046-0.228-0.127-0.31
						c-0.084-0.082-0.195-0.128-0.312-0.128h-3.278V9.923c0-0.992,0.236-1.496,1.531-1.496l1.878-0.001
						c0.241,0,0.438-0.196,0.438-0.438V4.712C20.813,4.471,20.616,4.275,20.375,4.275z"/>
				</g>
			</g>
		</g>
	</g>
	<g id="twitter-logo-silhouette.psd_1_" display="none">
		<g display="inline">
			<defs>
				<rect id="SVGID_5_" x="7" y="8.5" width="16" height="13"/>
			</defs>
			<clipPath id="SVGID_6_">
				<use xlink:href="#SVGID_5_"  overflow="visible"/>
			</clipPath>
			<g id="Forma_1_6_" clip-path="url(#SVGID_6_)">
				<g>
					<path fill="#F2F2F2" d="M22.559,9.74c-0.635,0.376-1.338,0.649-2.086,0.797C19.875,9.898,19.021,9.5,18.078,9.5
						c-1.813,0-3.283,1.47-3.283,3.282c0,0.257,0.029,0.508,0.085,0.748c-2.728-0.137-5.146-1.444-6.765-3.43
						c-0.283,0.484-0.444,1.048-0.444,1.65c0,1.139,0.58,2.144,1.459,2.732c-0.538-0.018-1.043-0.166-1.486-0.412v0.041
						c0,1.59,1.131,2.917,2.632,3.219c-0.275,0.074-0.565,0.115-0.865,0.115c-0.212,0-0.417-0.021-0.618-0.061
						c0.418,1.305,1.63,2.254,3.066,2.28c-1.123,0.88-2.539,1.403-4.076,1.403c-0.265,0-0.526-0.016-0.783-0.045
						c0.277,0.179,0.572,0.326,0.867,0.476h8.453c3.289-1.674,5.051-5.179,5.051-8.34l-0.012-0.425
						c0.644-0.461,1.201-1.039,1.641-1.697c-0.589,0.261-1.221,0.438-1.885,0.517C21.793,11.149,22.313,10.505,22.559,9.74z"/>
				</g>
			</g>
		</g>
	</g>
	<g id="copy.psd" display="none">
		<defs>
			<rect id="SVGID_7_" x="7.337" y="5.438" width="15.324" height="19.125"/>
		</defs>
		<clipPath id="SVGID_8_" display="inline">
			<use xlink:href="#SVGID_7_"  overflow="visible"/>
		</clipPath>
		<g id="Shape_1" display="inline" clip-path="url(#SVGID_8_)">
			<g>
				<path fill-rule="evenodd" clip-rule="evenodd" d="M17.747,8.782H8.85c-0.834,0-1.513,0.677-1.513,1.512v12.757
					c0,0.834,0.678,1.512,1.513,1.512h8.897c0.835,0,1.513-0.678,1.513-1.512V10.294C19.256,9.459,18.578,8.782,17.747,8.782z
					 M18.197,23.047c0,0.25-0.203,0.454-0.454,0.454H8.846c-0.25,0-0.455-0.204-0.455-0.454V10.294c0-0.25,0.204-0.454,0.455-0.454
					h8.897c0.251,0,0.454,0.204,0.454,0.454V23.047z M21.148,5.438h-8.896c-0.834,0-1.513,0.677-1.513,1.512
					c0,0.293,0.235,0.529,0.529,0.529s0.529-0.235,0.529-0.529c0-0.251,0.204-0.455,0.455-0.455h8.896
					c0.251,0,0.455,0.204,0.455,0.455v12.757c0,0.25-0.204,0.454-0.455,0.454c-0.294,0-0.529,0.234-0.529,0.528
					s0.235,0.529,0.529,0.529c0.835,0,1.513-0.678,1.513-1.512V6.949C22.661,6.115,21.983,5.438,21.148,5.438z"/>
			</g>
		</g>
	</g>
</g>
<g id="Capa_2">
	<path fill="#A0A0A0" d="M9.611,19.878h5.411v1.354H9.611V19.878z M16.374,11.762H9.611v1.353h6.763V11.762z M19.079,15.819v-2.705
		l-4.058,4.058l4.058,4.059v-2.707h6.763v-2.705H19.079z M12.993,14.467H9.611v1.352h3.382V14.467z M9.611,18.524h3.382v-1.352
		H9.611V18.524z M21.784,19.878h1.353v2.705c-0.021,0.379-0.146,0.697-0.401,0.949c-0.254,0.256-0.571,0.383-0.951,0.404H8.259
		c-0.74,0-1.353-0.613-1.353-1.354V7.704c0-0.739,0.613-1.352,1.353-1.352h4.058c0-1.501,1.205-2.706,2.705-2.706
		c1.5,0,2.705,1.205,2.705,2.706h4.058c0.74,0,1.353,0.613,1.353,1.352v6.763h-1.353V10.41H8.259v12.173h13.525V19.878z
		 M9.611,9.057h10.822c0-0.74-0.613-1.353-1.354-1.353h-1.353c-0.739,0-1.353-0.613-1.353-1.352c0-0.74-0.612-1.353-1.353-1.353
		c-0.739,0-1.353,0.613-1.353,1.353c0,0.739-0.613,1.352-1.353,1.352h-1.353C10.224,7.704,9.611,8.317,9.611,9.057z"/>
</g>
</svg>
