<?xml version="1.0" encoding="utf-8"?>
<!-- Generator: Adobe Illustrator 16.0.0, SVG Export Plug-In . SVG Version: 6.00 Build 0)  -->
<!DOCTYPE svg PUBLIC "-//W3C//DTD SVG 1.1//EN" "http://www.w3.org/Graphics/SVG/1.1/DTD/svg11.dtd">
<svg version="1.1" id="Capa_1" xmlns="http://www.w3.org/2000/svg" xmlns:xlink="http://www.w3.org/1999/xlink" x="0px" y="0px"
	 width="30px" height="30px" viewBox="0 0 30 30" enable-background="new 0 0 30 30" xml:space="preserve">
<circle fill="#FFFFFF" stroke="#A0A0A0" stroke-width="2" stroke-miterlimit="10" cx="15" cy="15" r="13.834"/>
<g id="link.psd_1_">
	<defs>
		<rect id="SVGID_1_" x="5.25" y="5.25" width="19.5" height="19.5"/>
	</defs>
	<clipPath id="SVGID_2_">
		<use xlink:href="#SVGID_1_"  overflow="visible"/>
	</clipPath>
	<g id="Shape_1" clip-path="url(#SVGID_2_)">
		<g>
			<path fill-rule="evenodd" clip-rule="evenodd" fill="#A0A0A0" d="M24.75,9.199c-0.067-0.65-0.336-1.284-0.833-1.781l-1.313-1.312
				c-0.561-0.561-1.293-0.843-2.029-0.856h-0.11c-0.736,0.014-1.469,0.296-2.029,0.856l-2.993,2.989c-1.15,1.149-1.15,3.018,0,4.167
				l0.076,0.076l-2.145,2.143l-0.08-0.079c-1.15-1.149-3.02-1.149-4.17,0l-2.992,2.989c-1.15,1.149-1.15,3.018,0,4.167l1.313,1.312
				c1.15,1.148,3.02,1.148,4.169,0l2.992-2.989c1.15-1.149,1.15-3.018,0-4.167l-0.076-0.075l2.145-2.143l0.079,0.08
				c1.15,1.149,3.021,1.149,4.17,0l2.992-2.99c0.497-0.496,0.766-1.128,0.833-1.778V9.199z M13.453,19.73L10.46,22.72
				c-0.513,0.514-1.349,0.514-1.866,0l-1.313-1.312c-0.514-0.513-0.514-1.348,0-1.864l2.992-2.99c0.513-0.513,1.349-0.513,1.866,0
				l0.08,0.08l-1.297,1.296c-0.331,0.33-0.331,0.827,0,1.161c0.167,0.167,0.374,0.25,0.581,0.25s0.414-0.083,0.581-0.25l1.297-1.296
				l0.072,0.071C13.966,18.379,13.966,19.214,13.453,19.73z M22.763,10.436l-2.991,2.99c-0.514,0.513-1.35,0.513-1.866,0l-0.08-0.08
				l1.297-1.296c0.331-0.33,0.331-0.827,0-1.161c-0.33-0.334-0.827-0.33-1.161,0l-1.298,1.296l-0.075-0.076
				c-0.514-0.513-0.514-1.348,0-1.864l2.992-2.99c0.514-0.513,1.349-0.513,1.866,0l1.313,1.312
				C23.28,9.084,23.28,9.919,22.763,10.436z"/>
		</g>
	</g>
</g>
<g id="facebook-logo.psd" display="none">
	<defs>
		<rect id="SVGID_3_" x="9.188" y="4.271" width="11.624" height="21.459"/>
	</defs>
	<clipPath id="SVGID_4_" display="inline">
		<use xlink:href="#SVGID_3_"  overflow="visible"/>
	</clipPath>
	<g id="Forma_1" display="inline" clip-path="url(#SVGID_4_)">
		<g>
			<path fill="#A0A0A0" d="M20.375,4.275l-2.788-0.004c-3.132,0-5.156,2.073-5.156,5.281v2.435H9.627
				c-0.242,0-0.438,0.196-0.438,0.438v3.528c0,0.241,0.197,0.438,0.438,0.438h2.803v8.902c0,0.242,0.196,0.438,0.438,0.438h3.658
				c0.242,0,0.438-0.195,0.438-0.438v-8.902h3.277c0.242,0,0.438-0.196,0.438-0.438l0.001-3.528c0-0.116-0.046-0.228-0.128-0.31
				c-0.083-0.082-0.194-0.128-0.311-0.128h-3.278V9.923c0-0.992,0.236-1.496,1.531-1.496l1.878-0.001
				c0.242,0,0.438-0.196,0.438-0.438V4.712C20.813,4.471,20.616,4.275,20.375,4.275z"/>
		</g>
	</g>
</g>
<g id="twitter-logo-silhouette.psd" display="none">
	<defs>
		<rect id="SVGID_5_" x="7" y="8.5" width="16" height="13"/>
	</defs>
	<clipPath id="SVGID_6_" display="inline">
		<use xlink:href="#SVGID_5_"  overflow="visible"/>
	</clipPath>
	<g id="Forma_1_2_" display="inline" clip-path="url(#SVGID_6_)">
		<g>
			<path fill-rule="evenodd" clip-rule="evenodd" fill="#A0A0A0" d="M22.559,9.74c-0.635,0.376-1.338,0.649-2.086,0.797
				C19.875,9.898,19.021,9.5,18.078,9.5c-1.813,0-3.283,1.47-3.283,3.282c0,0.257,0.029,0.508,0.085,0.748
				c-2.728-0.137-5.146-1.444-6.765-3.43c-0.283,0.484-0.444,1.048-0.444,1.65c0,1.139,0.58,2.144,1.459,2.732
				c-0.538-0.018-1.043-0.166-1.486-0.412v0.041c0,1.59,1.131,2.917,2.632,3.219c-0.275,0.074-0.565,0.115-0.865,0.115
				c-0.212,0-0.417-0.021-0.618-0.06c0.418,1.304,1.63,2.253,3.066,2.28c-1.123,0.88-2.539,1.404-4.076,1.404
				c-0.265,0-0.526-0.016-0.783-0.045c0.277,0.178,0.572,0.326,0.867,0.475h8.454c3.288-1.674,5.05-5.179,5.05-8.34l-0.012-0.425
				c0.644-0.461,1.201-1.039,1.641-1.697c-0.589,0.261-1.221,0.438-1.885,0.517C21.793,11.149,22.313,10.505,22.559,9.74z"/>
		</g>
	</g>
</g>
</svg>
